{
	"patcher" : 	{
		"fileversion" : 1,
		"appversion" : 		{
			"major" : 8,
			"minor" : 6,
			"revision" : 0,
			"architecture" : "x64",
			"modernui" : 1
		}
,
		"classnamespace" : "box",
		"rect" : [ 100.0, 100.0, 1200.0, 800.0 ],
		"bglocked" : 0,
		"openinpresentation" : 1,
		"default_fontsize" : 12.0,
		"default_fontface" : 0,
		"default_fontname" : "Arial",
		"gridonopen" : 1,
		"gridsize" : [ 15.0, 15.0 ],
		"gridsnaponopen" : 1,
		"objectsnaponopen" : 1,
		"statusbarvisible" : 2,
		"toolbarvisible" : 1,
		"lefttoolbarpinned" : 0,
		"toptoolbarpinned" : 0,
		"righttoolbarpinned" : 0,
		"bottomtoolbarpinned" : 0,
		"toolbars_unpinned_last_save" : 0,
		"tallnewobj" : 0,
		"boxanimatetime" : 200,
		"enablehscroll" : 1,
		"enablevscroll" : 1,
		"devicewidth" : 0.0,
		"description" : "",
		"digest" : "",
		"tags" : "",
		"style" : "",
		"subpatcher_template" : "",
		"assistshowspatchername" : 0,
		"boxes" : [ 			{
				"box" : 				{
					"id" : "obj-1",
					"maxclass" : "newobj",
					"numinlets" : 1,
					"numoutlets" : 0,
					"patching_rect" : [ 20.0, 20.0, 100.0, 22.0 ],
					"text" : "loadbang"
				}

			}
, 			{
				"box" : 				{
					"id" : "obj-2",
					"maxclass" : "message",
					"numinlets" : 2,
					"numoutlets" : 1,
					"outlettype" : [ "" ],
					"patching_rect" : [ 20.0, 50.0, 150.0, 22.0 ],
					"text" : "window flags grow, window exec"
				}

			}
, 			{
				"box" : 				{
					"id" : "obj-3",
					"maxclass" : "newobj",
					"numinlets" : 1,
					"numoutlets" : 2,
					"outlettype" : [ "", "" ],
					"patching_rect" : [ 20.0, 80.0, 67.0, 22.0 ],
					"save" : [ "#N", "thispatcher", ";", "#Q", "end", ";" ],
					"text" : "thispatcher"
				}

			}
, 			{
				"box" : 				{
					"id" : "obj-10",
					"maxclass" : "comment",
					"numinlets" : 1,
					"numoutlets" : 0,
					"patching_rect" : [ 20.0, 120.0, 300.0, 20.0 ],
					"presentation" : 1,
					"presentation_rect" : [ 10.0, 10.0, 380.0, 20.0 ],
					"text" : "GLASS SHARDS - Glassy Physical Modeling + Broken Textures",
					"fontsize" : 14.0,
					"fontface" : 1
				}

			}
, 			{
				"box" : 				{
					"id" : "obj-20",
					"maxclass" : "toggle",
					"numinlets" : 1,
					"numoutlets" : 1,
					"outlettype" : [ "int" ],
					"parameter_enable" : 0,
					"patching_rect" : [ 50.0, 180.0, 40.0, 40.0 ],
					"presentation" : 1,
					"presentation_rect" : [ 10.0, 40.0, 40.0, 40.0 ]
				}

			}
, 			{
				"box" : 				{
					"id" : "obj-21",
					"maxclass" : "comment",
					"numinlets" : 1,
					"numoutlets" : 0,
					"patching_rect" : [ 100.0, 190.0, 80.0, 20.0 ],
					"presentation" : 1,
					"presentation_rect" : [ 55.0, 50.0, 50.0, 20.0 ],
					"text" : "ON/OFF"
				}

			}
, 			{
				"box" : 				{
					"id" : "obj-30",
					"maxclass" : "newobj",
					"numinlets" : 2,
					"numoutlets" : 1,
					"outlettype" : [ "signal" ],
					"patching_rect" : [ 50.0, 230.0, 40.0, 22.0 ],
					"text" : "gate~"
				}

			}
, 			{
				"box" : 				{
					"id" : "obj-40",
					"maxclass" : "comment",
					"numinlets" : 1,
					"numoutlets" : 0,
					"patching_rect" : [ 200.0, 180.0, 150.0, 20.0 ],
					"presentation" : 1,
					"presentation_rect" : [ 10.0, 90.0, 150.0, 20.0 ],
					"text" : "EXCITER TYPE"
				}

			}
, 			{
				"box" : 				{
					"id" : "obj-41",
					"maxclass" : "umenu",
					"numinlets" : 1,
					"numoutlets" : 3,
					"outlettype" : [ "int", "", "" ],
					"parameter_enable" : 0,
					"patching_rect" : [ 200.0, 210.0, 100.0, 22.0 ],
					"presentation" : 1,
					"presentation_rect" : [ 10.0, 115.0, 150.0, 22.0 ],
					"items" : [ "Strike (Impulse)", ",", "Bow (Noise)", ",", "Breath (Filtered)" ]
				}

			}
, 			{
				"box" : 				{
					"id" : "obj-50",
					"maxclass" : "comment",
					"numinlets" : 1,
					"numoutlets" : 0,
					"patching_rect" : [ 200.0, 250.0, 150.0, 20.0 ],
					"presentation" : 1,
					"presentation_rect" : [ 180.0, 90.0, 150.0, 20.0 ],
					"text" : "MATERIAL"
				}

			}
, 			{
				"box" : 				{
					"id" : "obj-51",
					"maxclass" : "umenu",
					"numinlets" : 1,
					"numoutlets" : 3,
					"outlettype" : [ "int", "", "" ],
					"parameter_enable" : 0,
					"patching_rect" : [ 200.0, 280.0, 100.0, 22.0 ],
					"presentation" : 1,
					"presentation_rect" : [ 180.0, 115.0, 150.0, 22.0 ],
					"items" : [ "Glass (Bright)", ",", "Crystal (Mid)", ",", "Ice (Dark)" ]
				}

			}
, 			{
				"box" : 				{
					"id" : "obj-100",
					"maxclass" : "newobj",
					"numinlets" : 1,
					"numoutlets" : 1,
					"outlettype" : [ "" ],
					"patching_rect" : [ 350.0, 180.0, 70.0, 22.0 ],
					"text" : "r seq-note"
				}

			}
, 			{
				"box" : 				{
					"id" : "obj-101",
					"maxclass" : "newobj",
					"numinlets" : 1,
					"numoutlets" : 1,
					"outlettype" : [ "" ],
					"patching_rect" : [ 450.0, 180.0, 90.0, 22.0 ],
					"text" : "r roli-pressure"
				}

			}
, 			{
				"box" : 				{
					"id" : "obj-102",
					"maxclass" : "newobj",
					"numinlets" : 1,
					"numoutlets" : 1,
					"outlettype" : [ "" ],
					"patching_rect" : [ 560.0, 180.0, 70.0, 22.0 ],
					"text" : "r roli-slide"
				}

			}
, 			{
				"box" : 				{
					"id" : "obj-110",
					"maxclass" : "newobj",
					"numinlets" : 1,
					"numoutlets" : 1,
					"outlettype" : [ "" ],
					"patching_rect" : [ 350.0, 210.0, 75.0, 22.0 ],
					"text" : "mtof"
				}

			}
, 			{
				"box" : 				{
					"id" : "obj-120",
					"maxclass" : "newobj",
					"numinlets" : 3,
					"numoutlets" : 1,
					"outlettype" : [ "" ],
					"patching_rect" : [ 450.0, 210.0, 100.0, 22.0 ],
					"text" : "scale 0. 1. 0.5 1."
				}

			}
, 			{
				"box" : 				{
					"id" : "obj-121",
					"maxclass" : "newobj",
					"numinlets" : 3,
					"numoutlets" : 1,
					"outlettype" : [ "" ],
					"patching_rect" : [ 560.0, 210.0, 130.0, 22.0 ],
					"text" : "scale 0. 1. 200. 8000."
				}

			}
, 			{
				"box" : 				{
					"id" : "obj-200",
					"maxclass" : "newobj",
					"numinlets" : 1,
					"numoutlets" : 1,
					"outlettype" : [ "signal" ],
					"patching_rect" : [ 200.0, 350.0, 80.0, 22.0 ],
					"text" : "noise~"
				}

			}
, 			{
				"box" : 				{
					"id" : "obj-201",
					"maxclass" : "newobj",
					"numinlets" : 1,
					"numoutlets" : 1,
					"outlettype" : [ "signal" ],
					"patching_rect" : [ 200.0, 320.0, 50.0, 22.0 ],
					"text" : "click~"
				}

			}
, 			{
				"box" : 				{
					"id" : "obj-202",
					"maxclass" : "newobj",
					"numinlets" : 2,
					"numoutlets" : 1,
					"outlettype" : [ "signal" ],
					"patching_rect" : [ 290.0, 350.0, 80.0, 22.0 ],
					"text" : "noise~"
				}

			}
, 			{
				"box" : 				{
					"id" : "obj-203",
					"maxclass" : "newobj",
					"numinlets" : 3,
					"numoutlets" : 1,
					"outlettype" : [ "signal" ],
					"patching_rect" : [ 290.0, 380.0, 100.0, 22.0 ],
					"text" : "reson~ 3000 50"
				}

			}
, 			{
				"box" : 				{
					"id" : "obj-210",
					"maxclass" : "newobj",
					"numinlets" : 6,
					"numoutlets" : 1,
					"outlettype" : [ "signal" ],
					"patching_rect" : [ 200.0, 420.0, 150.0, 22.0 ],
					"text" : "selector~ 3"
				}

			}
, 			{
				"box" : 				{
					"id" : "obj-220",
					"maxclass" : "newobj",
					"numinlets" : 2,
					"numoutlets" : 1,
					"outlettype" : [ "int" ],
					"patching_rect" : [ 200.0, 390.0, 29.5, 22.0 ],
					"text" : "+ 1"
				}

			}
, 			{
				"box" : 				{
					"id" : "obj-300",
					"maxclass" : "newobj",
					"numinlets" : 3,
					"numoutlets" : 1,
					"outlettype" : [ "signal" ],
					"patching_rect" : [ 200.0, 480.0, 200.0, 22.0 ],
					"text" : "reson~ 440 0.995"
				}

			}
, 			{
				"box" : 				{
					"id" : "obj-301",
					"maxclass" : "newobj",
					"numinlets" : 3,
					"numoutlets" : 1,
					"outlettype" : [ "signal" ],
					"patching_rect" : [ 200.0, 510.0, 200.0, 22.0 ],
					"text" : "reson~ 880 0.995"
				}

			}
, 			{
				"box" : 				{
					"id" : "obj-302",
					"maxclass" : "newobj",
					"numinlets" : 3,
					"numoutlets" : 1,
					"outlettype" : [ "signal" ],
					"patching_rect" : [ 200.0, 540.0, 200.0, 22.0 ],
					"text" : "reson~ 1320 0.995"
				}

			}
, 			{
				"box" : 				{
					"id" : "obj-303",
					"maxclass" : "newobj",
					"numinlets" : 3,
					"numoutlets" : 1,
					"outlettype" : [ "signal" ],
					"patching_rect" : [ 200.0, 570.0, 200.0, 22.0 ],
					"text" : "reson~ 2640 0.995"
				}

			}
, 			{
				"box" : 				{
					"id" : "obj-310",
					"maxclass" : "newobj",
					"numinlets" : 2,
					"numoutlets" : 1,
					"outlettype" : [ "signal" ],
					"patching_rect" : [ 200.0, 600.0, 40.0, 22.0 ],
					"text" : "+~"
				}

			}
, 			{
				"box" : 				{
					"id" : "obj-311",
					"maxclass" : "newobj",
					"numinlets" : 2,
					"numoutlets" : 1,
					"outlettype" : [ "signal" ],
					"patching_rect" : [ 200.0, 630.0, 40.0, 22.0 ],
					"text" : "+~"
				}

			}
, 			{
				"box" : 				{
					"id" : "obj-312",
					"maxclass" : "newobj",
					"numinlets" : 2,
					"numoutlets" : 1,
					"outlettype" : [ "signal" ],
					"patching_rect" : [ 200.0, 660.0, 40.0, 22.0 ],
					"text" : "+~"
				}

			}
, 			{
				"box" : 				{
					"id" : "obj-320",
					"maxclass" : "newobj",
					"numinlets" : 2,
					"numoutlets" : 1,
					"outlettype" : [ "signal" ],
					"patching_rect" : [ 200.0, 690.0, 50.0, 22.0 ],
					"text" : "*~ 0.25"
				}

			}
, 			{
				"box" : 				{
					"id" : "obj-330",
					"maxclass" : "newobj",
					"numinlets" : 2,
					"numoutlets" : 1,
					"outlettype" : [ "signal" ],
					"patching_rect" : [ 200.0, 450.0, 200.0, 22.0 ],
					"text" : "line~"
				}

			}
, 			{
				"box" : 				{
					"id" : "obj-331",
					"maxclass" : "newobj",
					"numinlets" : 2,
					"numoutlets" : 1,
					"outlettype" : [ "signal" ],
					"patching_rect" : [ 420.0, 450.0, 200.0, 22.0 ],
					"text" : "line~"
				}

			}
, 			{
				"box" : 				{
					"id" : "obj-332",
					"maxclass" : "message",
					"numinlets" : 2,
					"numoutlets" : 1,
					"outlettype" : [ "" ],
					"patching_rect" : [ 350.0, 240.0, 50.0, 22.0 ],
					"text" : "$1 50"
				}

			}
, 			{
				"box" : 				{
					"id" : "obj-333",
					"maxclass" : "message",
					"numinlets" : 2,
					"numoutlets" : 1,
					"outlettype" : [ "" ],
					"patching_rect" : [ 560.0, 240.0, 50.0, 22.0 ],
					"text" : "$1 50"
				}

			}
, 			{
				"box" : 				{
					"id" : "obj-400",
					"maxclass" : "comment",
					"numinlets" : 1,
					"numoutlets" : 0,
					"patching_rect" : [ 50.0, 720.0, 150.0, 20.0 ],
					"presentation" : 1,
					"presentation_rect" : [ 10.0, 150.0, 150.0, 20.0 ],
					"text" : "BROKEN FX"
				}

			}
, 			{
				"box" : 				{
					"id" : "obj-401",
					"maxclass" : "comment",
					"numinlets" : 1,
					"numoutlets" : 0,
					"patching_rect" : [ 50.0, 750.0, 80.0, 20.0 ],
					"presentation" : 1,
					"presentation_rect" : [ 10.0, 175.0, 80.0, 20.0 ],
					"text" : "Bit Crush"
				}

			}
, 			{
				"box" : 				{
					"id" : "obj-402",
					"maxclass" : "slider",
					"numinlets" : 1,
					"numoutlets" : 1,
					"outlettype" : [ "" ],
					"parameter_enable" : 0,
					"patching_rect" : [ 50.0, 780.0, 150.0, 20.0 ],
					"presentation" : 1,
					"presentation_rect" : [ 10.0, 200.0, 150.0, 20.0 ],
					"size" : 128.0,
					"min" : 8.0
				}

			}
, 			{
				"box" : 				{
					"id" : "obj-403",
					"maxclass" : "comment",
					"numinlets" : 1,
					"numoutlets" : 0,
					"patching_rect" : [ 50.0, 810.0, 80.0, 20.0 ],
					"presentation" : 1,
					"presentation_rect" : [ 180.0, 175.0, 80.0, 20.0 ],
					"text" : "Downsample"
				}

			}
, 			{
				"box" : 				{
					"id" : "obj-404",
					"maxclass" : "slider",
					"numinlets" : 1,
					"numoutlets" : 1,
					"outlettype" : [ "" ],
					"parameter_enable" : 0,
					"patching_rect" : [ 50.0, 840.0, 150.0, 20.0 ],
					"presentation" : 1,
					"presentation_rect" : [ 180.0, 200.0, 150.0, 20.0 ],
					"size" : 32.0,
					"min" : 1.0
				}

			}
, 			{
				"box" : 				{
					"id" : "obj-410",
					"maxclass" : "newobj",
					"numinlets" : 1,
					"numoutlets" : 1,
					"outlettype" : [ "signal" ],
					"patching_rect" : [ 200.0, 780.0, 50.0, 22.0 ],
					"text" : "degrade~"
				}

			}
, 			{
				"box" : 				{
					"id" : "obj-420",
					"maxclass" : "comment",
					"numinlets" : 1,
					"numoutlets" : 0,
					"patching_rect" : [ 50.0, 870.0, 80.0, 20.0 ],
					"presentation" : 1,
					"presentation_rect" : [ 10.0, 230.0, 100.0, 20.0 ],
					"text" : "Stutter Rate (Hz)"
				}

			}
, 			{
				"box" : 				{
					"id" : "obj-421",
					"maxclass" : "flonum",
					"numinlets" : 1,
					"numoutlets" : 2,
					"outlettype" : [ "", "bang" ],
					"parameter_enable" : 0,
					"patching_rect" : [ 50.0, 900.0, 80.0, 22.0 ],
					"presentation" : 1,
					"presentation_rect" : [ 120.0, 230.0, 80.0, 22.0 ],
					"minimum" : 0.0,
					"maximum" : 20.0
				}

			}
, 			{
				"box" : 				{
					"id" : "obj-422",
					"maxclass" : "newobj",
					"numinlets" : 2,
					"numoutlets" : 1,
					"outlettype" : [ "signal" ],
					"patching_rect" : [ 200.0, 900.0, 50.0, 22.0 ],
					"text" : "cycle~"
				}

			}
, 			{
				"box" : 				{
					"id" : "obj-423",
					"maxclass" : "newobj",
					"numinlets" : 3,
					"numoutlets" : 1,
					"outlettype" : [ "signal" ],
					"patching_rect" : [ 200.0, 930.0, 80.0, 22.0 ],
					"text" : "clip~ -1. 1."
				}

			}
, 			{
				"box" : 				{
					"id" : "obj-424",
					"maxclass" : "newobj",
					"numinlets" : 2,
					"numoutlets" : 1,
					"outlettype" : [ "signal" ],
					"patching_rect" : [ 200.0, 960.0, 80.0, 22.0 ],
					"text" : "*~"
				}

			}
, 			{
				"box" : 				{
					"id" : "obj-500",
					"maxclass" : "comment",
					"numinlets" : 1,
					"numoutlets" : 0,
					"patching_rect" : [ 50.0, 1000.0, 150.0, 20.0 ],
					"presentation" : 1,
					"presentation_rect" : [ 10.0, 260.0, 150.0, 20.0 ],
					"text" : "SHIMMER REVERB"
				}

			}
, 			{
				"box" : 				{
					"id" : "obj-501",
					"maxclass" : "comment",
					"numinlets" : 1,
					"numoutlets" : 0,
					"patching_rect" : [ 50.0, 1030.0, 80.0, 20.0 ],
					"presentation" : 1,
					"presentation_rect" : [ 10.0, 285.0, 80.0, 20.0 ],
					"text" : "Size"
				}

			}
, 			{
				"box" : 				{
					"id" : "obj-502",
					"maxclass" : "slider",
					"numinlets" : 1,
					"numoutlets" : 1,
					"outlettype" : [ "" ],
					"parameter_enable" : 0,
					"patching_rect" : [ 50.0, 1060.0, 150.0, 20.0 ],
					"presentation" : 1,
					"presentation_rect" : [ 10.0, 310.0, 150.0, 20.0 ],
					"size" : 1.0
				}

			}
, 			{
				"box" : 				{
					"id" : "obj-503",
					"maxclass" : "newobj",
					"numinlets" : 3,
					"numoutlets" : 1,
					"outlettype" : [ "" ],
					"patching_rect" : [ 50.0, 1090.0, 100.0, 22.0 ],
					"text" : "scale 0. 127. 0.8 1."
				}

			}
, 			{
				"box" : 				{
					"id" : "obj-504",
					"maxclass" : "comment",
					"numinlets" : 1,
					"numoutlets" : 0,
					"patching_rect" : [ 220.0, 1030.0, 80.0, 20.0 ],
					"presentation" : 1,
					"presentation_rect" : [ 180.0, 285.0, 80.0, 20.0 ],
					"text" : "Damping"
				}

			}
, 			{
				"box" : 				{
					"id" : "obj-505",
					"maxclass" : "slider",
					"numinlets" : 1,
					"numoutlets" : 1,
					"outlettype" : [ "" ],
					"parameter_enable" : 0,
					"patching_rect" : [ 220.0, 1060.0, 150.0, 20.0 ],
					"presentation" : 1,
					"presentation_rect" : [ 180.0, 310.0, 150.0, 20.0 ],
					"size" : 1.0
				}

			}
, 			{
				"box" : 				{
					"id" : "obj-506",
					"maxclass" : "newobj",
					"numinlets" : 3,
					"numoutlets" : 1,
					"outlettype" : [ "" ],
					"patching_rect" : [ 220.0, 1090.0, 100.0, 22.0 ],
					"text" : "scale 0. 127. 0. 0.3"
				}

			}
, 			{
				"box" : 				{
					"id" : "obj-507",
					"maxclass" : "comment",
					"numinlets" : 1,
					"numoutlets" : 0,
					"patching_rect" : [ 50.0, 1130.0, 80.0, 20.0 ],
					"presentation" : 1,
					"presentation_rect" : [ 10.0, 340.0, 80.0, 20.0 ],
					"text" : "Wet/Dry"
				}

			}
, 			{
				"box" : 				{
					"id" : "obj-508",
					"maxclass" : "slider",
					"numinlets" : 1,
					"numoutlets" : 1,
					"outlettype" : [ "" ],
					"parameter_enable" : 0,
					"patching_rect" : [ 50.0, 1160.0, 150.0, 20.0 ],
					"presentation" : 1,
					"presentation_rect" : [ 10.0, 365.0, 150.0, 20.0 ],
					"size" : 1.0
				}

			}
, 			{
				"box" : 				{
					"id" : "obj-509",
					"maxclass" : "newobj",
					"numinlets" : 3,
					"numoutlets" : 1,
					"outlettype" : [ "" ],
					"patching_rect" : [ 50.0, 1190.0, 100.0, 22.0 ],
					"text" : "scale 0. 127. 0.6 1."
				}

			}
, 			{
				"box" : 				{
					"id" : "obj-510",
					"maxclass" : "newobj",
					"numinlets" : 4,
					"numoutlets" : 4,
					"outlettype" : [ "signal", "signal", "signal", "signal" ],
					"patching_rect" : [ 200.0, 1130.0, 200.0, 22.0 ],
					"text" : "freeverb~ 0.95 0.1 0.8 100"
				}

			}
, 			{
				"box" : 				{
					"id" : "obj-520",
					"maxclass" : "newobj",
					"numinlets" : 2,
					"numoutlets" : 1,
					"outlettype" : [ "signal" ],
					"patching_rect" : [ 200.0, 1020.0, 70.0, 22.0 ],
					"text" : "pitchshift~"
				}

			}
, 			{
				"box" : 				{
					"id" : "obj-521",
					"maxclass" : "message",
					"numinlets" : 2,
					"numoutlets" : 1,
					"outlettype" : [ "" ],
					"patching_rect" : [ 280.0, 990.0, 90.0, 22.0 ],
					"text" : "transpose 12"
				}

			}
, 			{
				"box" : 				{
					"id" : "obj-600",
					"maxclass" : "comment",
					"numinlets" : 1,
					"numoutlets" : 0,
					"patching_rect" : [ 50.0, 1230.0, 80.0, 20.0 ],
					"presentation" : 1,
					"presentation_rect" : [ 10.0, 395.0, 80.0, 20.0 ],
					"text" : "Master Gain"
				}

			}
, 			{
				"box" : 				{
					"id" : "obj-601",
					"maxclass" : "slider",
					"numinlets" : 1,
					"numoutlets" : 1,
					"outlettype" : [ "" ],
					"parameter_enable" : 0,
					"patching_rect" : [ 50.0, 1260.0, 150.0, 20.0 ],
					"presentation" : 1,
					"presentation_rect" : [ 10.0, 420.0, 320.0, 20.0 ],
					"size" : 1.0
				}

			}
, 			{
				"box" : 				{
					"id" : "obj-602",
					"maxclass" : "newobj",
					"numinlets" : 3,
					"numoutlets" : 1,
					"outlettype" : [ "" ],
					"patching_rect" : [ 50.0, 1290.0, 100.0, 22.0 ],
					"text" : "scale 0. 127. 0. 0.5"
				}

			}
, 			{
				"box" : 				{
					"id" : "obj-603",
					"maxclass" : "newobj",
					"numinlets" : 2,
					"numoutlets" : 1,
					"outlettype" : [ "signal" ],
					"patching_rect" : [ 200.0, 1260.0, 50.0, 22.0 ],
					"text" : "*~"
				}

			}
, 			{
				"box" : 				{
					"id" : "obj-700",
					"maxclass" : "newobj",
					"numinlets" : 1,
					"numoutlets" : 0,
					"patching_rect" : [ 200.0, 1320.0, 100.0, 22.0 ],
					"text" : "s~ glass-out"
				}

			}
, 			{
				"box" : 				{
					"id" : "obj-800",
					"maxclass" : "comment",
					"numinlets" : 1,
					"numoutlets" : 0,
					"patching_rect" : [ 500.0, 720.0, 300.0, 20.0 ],
					"presentation" : 1,
					"presentation_rect" : [ 10.0, 450.0, 300.0, 20.0 ],
					"text" : "QUICK PRESETS",
					"fontsize" : 12.0,
					"fontface" : 1
				}

			}
, 			{
				"box" : 				{
					"id" : "obj-801",
					"maxclass" : "message",
					"numinlets" : 2,
					"numoutlets" : 1,
					"outlettype" : [ "" ],
					"patching_rect" : [ 500.0, 750.0, 150.0, 22.0 ],
					"presentation" : 1,
					"presentation_rect" : [ 10.0, 475.0, 150.0, 22.0 ],
					"text" : "Pristine Glass"
				}

			}
, 			{
				"box" : 				{
					"id" : "obj-802",
					"maxclass" : "message",
					"numinlets" : 2,
					"numoutlets" : 1,
					"outlettype" : [ "" ],
					"patching_rect" : [ 500.0, 780.0, 150.0, 22.0 ],
					"presentation" : 1,
					"presentation_rect" : [ 10.0, 505.0, 150.0, 22.0 ],
					"text" : "Broken Crystals"
				}

			}
, 			{
				"box" : 				{
					"id" : "obj-803",
					"maxclass" : "message",
					"numinlets" : 2,
					"numoutlets" : 1,
					"outlettype" : [ "" ],
					"patching_rect" : [ 500.0, 810.0, 150.0, 22.0 ],
					"presentation" : 1,
					"presentation_rect" : [ 10.0, 535.0, 150.0, 22.0 ],
					"text" : "Shattered Ice"
				}

			}
, 			{
				"box" : 				{
					"id" : "obj-804",
					"maxclass" : "message",
					"numinlets" : 2,
					"numoutlets" : 1,
					"outlettype" : [ "" ],
					"patching_rect" : [ 670.0, 750.0, 150.0, 22.0 ],
					"presentation" : 1,
					"presentation_rect" : [ 180.0, 475.0, 150.0, 22.0 ],
					"text" : "Shimmer Heaven"
				}

			}
, 			{
				"box" : 				{
					"id" : "obj-805",
					"maxclass" : "message",
					"numinlets" : 2,
					"numoutlets" : 1,
					"outlettype" : [ "" ],
					"patching_rect" : [ 670.0, 780.0, 150.0, 22.0 ],
					"presentation" : 1,
					"presentation_rect" : [ 180.0, 505.0, 150.0, 22.0 ],
					"text" : "Dark Fracture"
				}

			}
, 			{
				"box" : 				{
					"id" : "obj-810",
					"maxclass" : "newobj",
					"numinlets" : 1,
					"numoutlets" : 1,
					"outlettype" : [ "bang" ],
					"patching_rect" : [ 500.0, 850.0, 58.0, 22.0 ],
					"text" : "loadbang"
				}

			}
, 			{
				"box" : 				{
					"id" : "obj-820",
					"maxclass" : "message",
					"numinlets" : 2,
					"numoutlets" : 1,
					"outlettype" : [ "" ],
					"patching_rect" : [ 500.0, 880.0, 300.0, 22.0 ],
					"text" : "51 0, 51 64 2000, 51 0 3000"
				}

			}
 ],
		"lines" : [ 			{
				"patchline" : 				{
					"destination" : [ "obj-2", 0 ],
					"source" : [ "obj-1", 0 ]
				}

			}
, 			{
				"patchline" : 				{
					"destination" : [ "obj-3", 0 ],
					"source" : [ "obj-2", 0 ]
				}

			}
, 			{
				"patchline" : 				{
					"destination" : [ "obj-30", 0 ],
					"source" : [ "obj-20", 0 ]
				}

			}
, 			{
				"patchline" : 				{
					"destination" : [ "obj-220", 0 ],
					"source" : [ "obj-41", 0 ]
				}

			}
, 			{
				"patchline" : 				{
					"destination" : [ "obj-300", 2 ],
					"order" : 3,
					"source" : [ "obj-51", 0 ]
				}

			}
, 			{
				"patchline" : 				{
					"destination" : [ "obj-301", 2 ],
					"order" : 2,
					"source" : [ "obj-51", 0 ]
				}

			}
, 			{
				"patchline" : 				{
					"destination" : [ "obj-302", 2 ],
					"order" : 1,
					"source" : [ "obj-51", 0 ]
				}

			}
, 			{
				"patchline" : 				{
					"destination" : [ "obj-303", 2 ],
					"order" : 0,
					"source" : [ "obj-51", 0 ]
				}

			}
, 			{
				"patchline" : 				{
					"destination" : [ "obj-110", 0 ],
					"source" : [ "obj-100", 0 ]
				}

			}
, 			{
				"patchline" : 				{
					"destination" : [ "obj-120", 0 ],
					"source" : [ "obj-101", 0 ]
				}

			}
, 			{
				"patchline" : 				{
					"destination" : [ "obj-121", 0 ],
					"source" : [ "obj-102", 0 ]
				}

			}
, 			{
				"patchline" : 				{
					"destination" : [ "obj-332", 0 ],
					"source" : [ "obj-110", 0 ]
				}

			}
, 			{
				"patchline" : 				{
					"destination" : [ "obj-410", 1 ],
					"source" : [ "obj-120", 0 ]
				}

			}
, 			{
				"patchline" : 				{
					"destination" : [ "obj-333", 0 ],
					"source" : [ "obj-121", 0 ]
				}

			}
, 			{
				"patchline" : 				{
					"destination" : [ "obj-210", 1 ],
					"source" : [ "obj-201", 0 ]
				}

			}
, 			{
				"patchline" : 				{
					"destination" : [ "obj-203", 0 ],
					"source" : [ "obj-202", 0 ]
				}

			}
, 			{
				"patchline" : 				{
					"destination" : [ "obj-210", 2 ],
					"source" : [ "obj-203", 0 ]
				}

			}
, 			{
				"patchline" : 				{
					"destination" : [ "obj-300", 0 ],
					"source" : [ "obj-210", 0 ]
				}

			}
, 			{
				"patchline" : 				{
					"destination" : [ "obj-210", 0 ],
					"source" : [ "obj-220", 0 ]
				}

			}
, 			{
				"patchline" : 				{
					"destination" : [ "obj-301", 0 ],
					"source" : [ "obj-300", 0 ]
				}

			}
, 			{
				"patchline" : 				{
					"destination" : [ "obj-302", 0 ],
					"source" : [ "obj-301", 0 ]
				}

			}
, 			{
				"patchline" : 				{
					"destination" : [ "obj-303", 0 ],
					"source" : [ "obj-302", 0 ]
				}

			}
, 			{
				"patchline" : 				{
					"destination" : [ "obj-310", 0 ],
					"source" : [ "obj-303", 0 ]
				}

			}
, 			{
				"patchline" : 				{
					"destination" : [ "obj-311", 0 ],
					"source" : [ "obj-310", 0 ]
				}

			}
, 			{
				"patchline" : 				{
					"destination" : [ "obj-312", 0 ],
					"source" : [ "obj-311", 0 ]
				}

			}
, 			{
				"patchline" : 				{
					"destination" : [ "obj-320", 0 ],
					"source" : [ "obj-312", 0 ]
				}

			}
, 			{
				"patchline" : 				{
					"destination" : [ "obj-410", 0 ],
					"source" : [ "obj-320", 0 ]
				}

			}
, 			{
				"patchline" : 				{
					"destination" : [ "obj-300", 1 ],
					"order" : 3,
					"source" : [ "obj-330", 0 ]
				}

			}
, 			{
				"patchline" : 				{
					"destination" : [ "obj-301", 1 ],
					"order" : 2,
					"source" : [ "obj-330", 0 ]
				}

			}
, 			{
				"patchline" : 				{
					"destination" : [ "obj-302", 1 ],
					"order" : 1,
					"source" : [ "obj-330", 0 ]
				}

			}
, 			{
				"patchline" : 				{
					"destination" : [ "obj-303", 1 ],
					"order" : 0,
					"source" : [ "obj-330", 0 ]
				}

			}
, 			{
				"patchline" : 				{
					"destination" : [ "obj-203", 1 ],
					"source" : [ "obj-331", 0 ]
				}

			}
, 			{
				"patchline" : 				{
					"destination" : [ "obj-330", 0 ],
					"source" : [ "obj-332", 0 ]
				}

			}
, 			{
				"patchline" : 				{
					"destination" : [ "obj-331", 0 ],
					"source" : [ "obj-333", 0 ]
				}

			}
, 			{
				"patchline" : 				{
					"destination" : [ "obj-410", 2 ],
					"source" : [ "obj-402", 0 ]
				}

			}
, 			{
				"patchline" : 				{
					"destination" : [ "obj-410", 3 ],
					"source" : [ "obj-404", 0 ]
				}

			}
, 			{
				"patchline" : 				{
					"destination" : [ "obj-422", 0 ],
					"source" : [ "obj-421", 0 ]
				}

			}
, 			{
				"patchline" : 				{
					"destination" : [ "obj-423", 0 ],
					"source" : [ "obj-422", 0 ]
				}

			}
, 			{
				"patchline" : 				{
					"destination" : [ "obj-424", 1 ],
					"source" : [ "obj-423", 0 ]
				}

			}
, 			{
				"patchline" : 				{
					"destination" : [ "obj-520", 0 ],
					"source" : [ "obj-424", 0 ]
				}

			}
, 			{
				"patchline" : 				{
					"destination" : [ "obj-503", 0 ],
					"source" : [ "obj-502", 0 ]
				}

			}
, 			{
				"patchline" : 				{
					"destination" : [ "obj-510", 1 ],
					"source" : [ "obj-503", 0 ]
				}

			}
, 			{
				"patchline" : 				{
					"destination" : [ "obj-506", 0 ],
					"source" : [ "obj-505", 0 ]
				}

			}
, 			{
				"patchline" : 				{
					"destination" : [ "obj-510", 2 ],
					"source" : [ "obj-506", 0 ]
				}

			}
, 			{
				"patchline" : 				{
					"destination" : [ "obj-509", 0 ],
					"source" : [ "obj-508", 0 ]
				}

			}
, 			{
				"patchline" : 				{
					"destination" : [ "obj-510", 3 ],
					"source" : [ "obj-509", 0 ]
				}

			}
, 			{
				"patchline" : 				{
					"destination" : [ "obj-603", 0 ],
					"source" : [ "obj-510", 0 ]
				}

			}
, 			{
				"patchline" : 				{
					"destination" : [ "obj-510", 0 ],
					"source" : [ "obj-520", 0 ]
				}

			}
, 			{
				"patchline" : 				{
					"destination" : [ "obj-520", 0 ],
					"source" : [ "obj-521", 0 ]
				}

			}
, 			{
				"patchline" : 				{
					"destination" : [ "obj-602", 0 ],
					"source" : [ "obj-601", 0 ]
				}

			}
, 			{
				"patchline" : 				{
					"destination" : [ "obj-603", 1 ],
					"source" : [ "obj-602", 0 ]
				}

			}
, 			{
				"patchline" : 				{
					"destination" : [ "obj-700", 0 ],
					"source" : [ "obj-603", 0 ]
				}

			}
, 			{
				"patchline" : 				{
					"destination" : [ "obj-410", 0 ],
					"source" : [ "obj-424", 0 ]
				}

			}
, 			{
				"patchline" : 				{
					"destination" : [ "obj-820", 0 ],
					"source" : [ "obj-810", 0 ]
				}

			}
 ],
		"dependency_cache" : [ 		]
,
		"autosave" : 0
	}

}
